<?xml version="1.0" encoding="utf-8"?>
<!-- Generator: Adobe Illustrator 27.5.0, SVG Export Plug-In . SVG Version: 6.00 Build 0)  -->
<svg version="1.1" id="Camada_1" xmlns="http://www.w3.org/2000/svg" xmlns:xlink="http://www.w3.org/1999/xlink" x="0px" y="0px"
	 viewBox="0 0 841.89 595.28" style="enable-background:new 0 0 841.89 595.28;" xml:space="preserve">
<style type="text/css">
	.st0{fill:#F49623;}
	.st1{fill:#168E45;}
	.st2{fill:#B2202A;}
	.st3{fill:#0E608F;}
	.st4{fill:#282C5C;}
	.st5{fill:#FFFFFF;}
</style>
<g id="Camada_1_00000057136059397072640030000007006849121192170151_">
	<g>
		<g>
			<path class="st0" d="M418.22,230.35v53.83c0,1.8-1.95,2.93-3.52,2.03l-46.62-26.91c-1.45-0.84-2.34-2.38-2.34-4.06v-53.83
				c0-1.8,1.95-2.93,3.52-2.03l46.62,26.91C417.33,227.13,418.22,228.68,418.22,230.35z"/>
			<path class="st1" d="M371.99,194.66l46.62,26.91c1.45,0.84,3.24,0.84,4.69,0l46.61-26.9c1.56-0.9,1.56-3.16,0-4.06l-46.62-26.92
				c-1.45-0.84-3.24-0.84-4.69,0l-46.61,26.91C370.43,191.51,370.43,193.76,371.99,194.66z"/>
			<path class="st2" d="M423.67,284.18v-53.82c0-1.67,0.89-3.22,2.34-4.06l46.62-26.92c1.56-0.9,3.52,0.23,3.52,2.03v53.83
				c0,1.67-0.89,3.22-2.34,4.06l-46.62,26.91C425.62,287.11,423.67,285.99,423.67,284.18z"/>
			<path class="st3" d="M573.89,278.39c-9.67-2.37-19.51-4.03-29.43-4.78c-42.57-4.01-84.07,12.78-116.03,40.51
				c-2.21,1.92-4.38,3.88-6.5,5.91l-0.99-0.98l-0.99,0.98c-2.04-1.94-4.12-3.83-6.24-5.68c-32.05-27.89-73.51-44.74-116.29-40.74
				c-9.92,0.75-19.76,2.41-29.44,4.78l7.38-17.83h0.01c38.97-4.05,79.07,3.93,111.43,26.77c11.54,7.84,22.02,16.98,31.53,26.93
				c1.42,1.48,3.78,1.42,5.18-0.06c39.08-41.39,88.51-59.51,142.95-53.66L573.89,278.39z"/>
			<path class="st4" d="M593.94,326.76c-12.48-7.98-25.72-14.74-39.67-19.64c-41.93-15.56-88.6-8.86-127.76,11.74
				c-1.73,0.91-3.62,1.39-5.56,1.39s-3.83-0.49-5.55-1.39c-39.24-20.61-85.75-27.31-127.77-11.74
				c-13.95,4.89-27.19,11.66-39.67,19.64l-0.01-0.02l10.19-24.59c37.79-15.65,80.59-19.2,119.37-4.91
				c12.71,4.43,24.78,10.28,36.2,17.11c1.48,0.87,2.93,1.77,4.38,2.68c0.85,0.54,1.83,0.82,2.83,0.82c1.02,0,2.01-0.3,2.87-0.85
				c1.54-0.99,3.08-1.95,4.63-2.88c49.59-29.99,103.22-33.71,155.29-11.98L593.94,326.76z"/>
			<g>
				
					<ellipse transform="matrix(0.7992 -0.6011 0.6011 0.7992 -57.2831 272.1712)" class="st5" cx="378.69" cy="221.82" rx="3.64" ry="6.43"/>
				
					<ellipse transform="matrix(0.7992 -0.6011 0.6011 0.7992 -67.1653 284.06)" class="st5" cx="391.54" cy="242.55" rx="3.64" ry="6.43"/>
				
					<ellipse transform="matrix(0.7992 -0.6011 0.6011 0.7992 -77.175 296.5981)" class="st5" cx="405.3" cy="263.8" rx="3.64" ry="6.43"/>
			</g>
			<g>
				
					<ellipse transform="matrix(0.4703 -0.8825 0.8825 0.4703 49.596 526.4176)" class="st5" cx="463.32" cy="221.89" rx="6.43" ry="3.64"/>
				
					<ellipse transform="matrix(0.4703 -0.8825 0.8825 0.4703 -1.5461 524.9379)" class="st5" cx="436.51" cy="263.76" rx="6.43" ry="3.64"/>
			</g>
			
				<ellipse transform="matrix(0.9995 -0.03 0.03 0.9995 -5.5123 12.7142)" class="st5" cx="420.98" cy="190.07" rx="6.85" ry="4.02"/>
		</g>
		<g>
			<path class="st4" d="M145.95,408.05c-2.02,30.04-39.52,26.42-60.16,18.94c-1.44-0.56-2.85-1.31-2.79-1.82
				c1.17-5.79,3.16-11.39,5.92-16.62c0.41-0.78,2.37-0.09,5.01,0.53c8.99,2.04,19.63,5.53,28.4,2c1.97-0.73,3.2-2.69,3.01-4.77
				c-0.19-2.09-1.76-3.79-3.83-4.15c-9.95-3.02-21.51-3.25-29.93-10.45c-12.4-9.95-11.17-31.15,0.41-41.25
				c11.05-9.86,34.71-9.2,46.64-2.04c-1.17,6.7-3.48,13.14-6.83,19.06c-0.3,0.4-1.86,0.28-2.47,0.16
				c-5.27-1.07-14.82-4.72-21.45-1.48c-3.51,1.7-4.78,8.06-0.58,10.33c4.79,1.88,9.75,3.3,14.8,4.23
				C138.37,384.63,147.52,393.76,145.95,408.05z"/>
			<path class="st4" d="M204.9,431.2c-18.48,4.28-40.15-5.38-47.55-23.21c-8.01-19.75-3.34-46.7,15.75-58.4
				c25.44-15.24,58.56-3.04,62.61,27.77C240.42,400.92,229.72,425.53,204.9,431.2z M196.38,364.62
				c-7.43-0.05-15.26,3.47-18.42,10.48c-4.58,10.43-4.63,26.5,6.68,32.61c12.28,7.31,28.89,0.55,30.24-14.22
				C216.42,380.3,212.76,363.93,196.38,364.62z"/>
			<path class="st4" d="M321.31,411.07c-27.71,44.42-86.94,12.18-74.34-35.47c3.27-14.58,14.45-27.66,29.33-30.99
				c15.99-4.55,37.67,3.16,43.06,19.54c0.32,0.96-0.26,1.87-1.11,2.41c-3.44,2.2-9.38,4.28-13.31,4.8c-0.92,0.12-1.77,0.11-2.4-0.65
				c-3.64-5.34-7.85-7.95-14.38-8.19c-20.25-1.64-27.25,20.81-19.39,36.77c4.37,8.8,14.39,15.45,23.8,10.99
				c4.03-1.93,7.14-5.38,9.72-9c0.14-0.19,2.01-2.83,3.07-3.04c4.77-0.92,15.2,4.93,16.97,9.45
				C322.65,408.52,322.09,409.69,321.31,411.07z"/>
			<path class="st4" d="M351.81,431.71c-4.42,0.54-14.23,0.87-19.47-0.24c-0.96-0.21-0.99-4.66-0.99-5.17v-74.7
				c0,0-0.03-5.23,1.02-5.47c4.3-0.96,14.14-0.3,19.43,0.27c1.02,0.12,1.02,5.2,1.02,5.2v74.67
				C352.83,426.26,352.95,431.59,351.81,431.71z"/>
			<path class="st4" d="M508.39,430.35c-0.14,0.88-4.21,1.06-5.44,1.02c-6.96,0.04-15.25,0.11-22.21,0.1
				c-7.39,0.01-16.86,0.37-24.06-0.97c-0.64-0.16-0.84-2.29-0.9-3.76c0.17-23.36,0.55-47.09,0.82-70.45l0.07-5.33
				c0,0,0.01-5.21,1.06-5.43c4.36-0.89,14.15-0.15,19.47,0.49c1,0.11,0.95,5.2,0.95,5.2c-0.27,19.45-0.46,39.34-0.72,58.8
				c8.12-0.01,17.31-0.09,25.44-0.13c0,0,5.57-0.12,5.7,1.01C509.13,415.3,509.51,425.1,508.39,430.35z"/>
			<path class="st4" d="M586.8,350.97c-2.56,25.59,6.26,60.91-19.53,76.87c-15.28,8.32-37.98,4.81-47.18-10.86
				c-9.39-15.84-3.92-38.32-4.24-55.75l0.42-10.83c0,0,0.18-5.33,1.11-5.51c3.88-0.81,12.55,0.27,17.24,1.08
				c0.9,0.15,0.78,5.23,0.78,5.23c-0.39,13.95-0.76,28.53-1.11,42.48c0.1,3.99,0.45,8,2.14,11.58c2.89,6.83,11.73,7.33,18.08,5.99
				c9.39-3.1,10.18-14.75,10.32-23.26c0.27-12.21,0.48-25.15,0.54-37.37c0,0-0.06-5.35,1.08-5.47c4.42-0.48,14.26-0.66,19.47,0.51
				C586.92,345.91,586.8,350.97,586.8,350.97z"/>
			<path class="st4" d="M624.35,432.02c-8.53,0.46-17.09,0.07-25.54-1.17c-1.02-0.24-0.87-5.23-0.87-5.23l1.71-74.43
				c0,0,0.09-5.23,1.14-5.44c2.49-0.38,5-0.58,7.52-0.6c31.06-1.05,55.79,1.96,57.75,38.34
				C667.6,412.12,656.09,431.65,624.35,432.02z M620.82,366.39c-0.34,14.32-0.65,29.72-1.02,44.04c20,0.92,24.37-0.42,24.88-21.48
				C645.15,369.63,640.1,364.95,620.82,366.39z"/>
			<path class="st4" d="M727.21,431.2c-18.48,4.28-40.15-5.38-47.55-23.21c-8.01-19.75-3.34-46.7,15.75-58.4
				c25.44-15.24,58.56-3.04,62.61,27.77C762.72,400.92,752.03,425.53,727.21,431.2z M718.68,364.62
				c-7.43-0.05-15.26,3.47-18.41,10.48c-4.58,10.43-4.63,26.5,6.68,32.61c12.28,7.31,28.89,0.55,30.24-14.22
				C738.73,380.3,735.07,363.93,718.68,364.62z"/>
			<path class="st4" d="M414.39,431.2c-18.48,4.28-40.14-5.38-47.55-23.21c-8.01-19.75-3.34-46.7,15.75-58.4
				c25.44-15.24,58.56-3.04,62.61,27.77C449.9,400.92,439.21,425.53,414.39,431.2z M405.86,364.62
				c-7.43-0.05-15.26,3.47-18.41,10.48c-4.58,10.43-4.63,26.5,6.68,32.61c12.28,7.31,28.89,0.55,30.24-14.22
				C425.91,380.3,422.25,363.92,405.86,364.62z"/>
		</g>
	</g>
</g>
</svg>
